<svg width="360" height="271" viewBox="0 0 360 271" fill="none" xmlns="http://www.w3.org/2000/svg">
<g opacity="0.8">
<path d="M-10 -20H76V177.5L-10 271V-20Z" fill="url(#paint0_linear)"/>
<rect x="75" y="-20" width="312" height="198" fill="url(#paint1_linear)"/>
</g>
<path d="M35.5 224.5H139.5C166.3 224.5 163 205.833 158 196.5L60.5 188.5C46.3333 165.333 16.4 126.3 10 155.5C3.60002 184.7 24.3334 213.667 35.5 224.5Z" fill="url(#paint2_radial)" fill-opacity="0.03"/>
<path d="M134.115 176L222.041 216.288C244.179 221.769 239.054 206.45 237.5 195.02L166.721 159.991C161.414 131.262 132.847 80.7492 119.5 112C106.153 143.251 127.881 161.637 134.115 176Z" fill="url(#paint3_radial)" fill-opacity="0.03"/>
<g clip-path="url(#clip0)">
<path d="M157.883 227C171.704 227 182.908 220.522 182.908 212.532C182.908 204.541 171.704 198.064 157.883 198.064C144.062 198.064 132.858 204.541 132.858 212.532C132.858 220.522 144.062 227 157.883 227Z" fill="#37474F" fill-opacity="0.1"/>
<path d="M222.991 218.433C236.812 218.433 248.016 211.955 248.016 203.965C248.016 195.974 236.812 189.497 222.991 189.497C209.169 189.497 197.965 195.974 197.965 203.965C197.965 211.955 209.169 218.433 222.991 218.433Z" fill="#37474F" fill-opacity="0.1"/>
<path d="M135.948 198.82C135.948 198.82 135.433 186.809 130.407 180.127C125.38 173.444 119.214 172.479 116.155 174.361C113.925 175.732 114.226 179.801 118.085 182.46C121.945 185.12 129.385 191.88 130.548 196.298L135.948 198.82Z" fill="#4BBDC1"/>
<path d="M132.648 197.07C132.567 197.065 132.49 197.028 132.436 196.967C132.381 196.907 132.353 196.827 132.356 196.745C132.873 185.847 123.323 179.051 120.737 177.829C120.665 177.792 120.609 177.729 120.583 177.652C120.556 177.575 120.561 177.491 120.596 177.417C120.63 177.344 120.692 177.286 120.768 177.258C120.844 177.229 120.928 177.232 121.003 177.265C123.668 178.526 133.511 185.532 132.978 196.774C132.974 196.856 132.938 196.934 132.877 196.99C132.816 197.045 132.735 197.074 132.653 197.07H132.648Z" fill="white"/>
<path d="M133.56 195.028C132.861 194.927 132.185 194.803 131.726 194.298C131.14 193.651 131.191 192.67 130.92 191.84C130.479 190.481 129.139 189.559 127.742 189.267C126.345 188.975 124.892 189.215 123.507 189.556C120.706 190.244 118.014 188.518 115.206 188.722C114.196 188.757 113.214 189.064 112.364 189.612C111.542 190.192 110.947 191.158 111.004 192.163C111.093 193.007 111.508 193.783 112.16 194.326C112.808 194.86 113.523 195.307 114.286 195.656C115.107 196.075 115.928 196.494 116.749 196.913C117.167 197.1 117.553 197.351 117.894 197.657C118.502 198.264 118.925 199.44 118.754 200.284C118.564 201.225 117.794 201.959 117.565 202.891C117.264 204.116 118.011 205.422 119.082 206.084C120.154 206.745 121.473 206.869 122.731 206.796C123.988 206.723 125.23 206.472 126.489 206.45C127.338 206.435 128.221 206.535 128.941 206.983C129.82 207.53 130.331 208.512 130.664 209.494C130.877 210.124 131.042 210.789 131.434 211.327C131.865 211.872 132.447 212.277 133.107 212.492C134.374 212.955 135.763 212.953 137.028 212.485C138.066 212.087 138.574 210.912 138.962 209.895C139.35 208.832 139.535 207.706 139.508 206.574C139.448 203.66 138.791 200.788 137.576 198.139C136.992 196.92 136.144 195.703 134.861 195.281C134.435 195.16 134 195.075 133.56 195.028Z" fill="#55D5D9"/>
<path d="M136.28 208.087C136.223 208.088 136.167 208.07 136.12 208.036C136.073 208.003 136.037 207.956 136.019 207.902C133.092 199.492 119.228 192.172 114.158 191.333C114.122 191.328 114.086 191.315 114.055 191.296C114.023 191.277 113.995 191.252 113.974 191.222C113.952 191.193 113.936 191.159 113.928 191.123C113.919 191.087 113.918 191.05 113.924 191.013C113.93 190.977 113.943 190.942 113.963 190.91C113.982 190.879 114.008 190.852 114.038 190.831C114.068 190.81 114.103 190.795 114.139 190.787C114.175 190.779 114.212 190.779 114.248 190.786C119.414 191.64 133.549 199.119 136.542 207.718C136.554 207.753 136.559 207.789 136.557 207.825C136.555 207.862 136.546 207.897 136.53 207.93C136.514 207.963 136.492 207.992 136.465 208.016C136.438 208.041 136.406 208.059 136.372 208.071C136.342 208.082 136.311 208.087 136.28 208.087Z" fill="white"/>
<path d="M123.822 203.483C123.765 203.483 123.708 203.465 123.661 203.431C123.614 203.397 123.578 203.349 123.56 203.294C123.541 203.239 123.54 203.18 123.557 203.125C123.574 203.069 123.607 203.02 123.653 202.985C125.921 201.419 128.599 200.557 131.354 200.508H131.36C131.433 200.507 131.504 200.535 131.557 200.587C131.609 200.638 131.639 200.709 131.64 200.782C131.641 200.856 131.612 200.927 131.561 200.979C131.51 201.032 131.439 201.062 131.366 201.063C128.732 201.121 126.17 201.942 123.991 203.425C123.943 203.463 123.884 203.483 123.822 203.483Z" fill="white"/>
<path d="M215.358 125.299C219.79 110.895 224.103 101.41 219.71 98.4724C215.617 99.2313 213.784 101.258 212.914 106.66C212.002 112.328 210.105 120.22 208.998 124.779C208.116 128.418 206.391 132.993 204.914 135.779C204.651 136.266 204.222 136.644 203.706 136.844C202.34 137.38 201.684 138.078 200.57 138.874C199.698 139.498 199.055 139.568 199.095 139.83C199.146 140.167 199.54 140.774 200.464 140.674C201.122 140.547 201.762 140.341 202.37 140.061C202.37 140.061 201.564 142.228 199.983 143.551C197.84 145.345 198.16 147.14 201.61 147.349C202.845 147.424 205.707 146.297 208.36 141.772C209.124 140.469 210.011 138.335 210.723 136.556C212.578 131.925 214.472 128.181 215.358 125.299Z" fill="#FFA8A7"/>
<path d="M220.492 98.3016C220.492 98.3016 217.081 98.1236 215.016 100.405C212.95 102.687 210.535 116.328 210.535 116.328C210.535 116.328 212.799 119.443 218.766 118.167L220.492 98.3016Z" fill="#A30707"/>
<path d="M236.448 195.056H231.869V203.232H236.448V195.056Z" fill="#FFA8A7"/>
<path d="M220.571 194.62L215.995 194.784L215.766 186.131L220.571 185.967L220.571 194.62Z" fill="#FFA8A7"/>
<path d="M237.093 124.268C237.093 128.829 236.423 165.532 236.423 165.532C236.529 166.845 237.709 169.264 237.454 174.305C237.107 181.152 236.644 199.144 236.644 199.144C236.644 199.144 234.421 200.499 231.545 199.25C231.545 199.25 227.214 174.329 226.393 167.543C225.677 161.622 224.463 141.684 224.463 141.684L221.98 164.865C222.51 167.358 222.701 169.911 222.547 172.455C222.334 175.593 220.861 191.939 220.861 191.939C220.861 191.939 218.706 193.464 215.574 192.361C215.574 192.361 212.969 167.744 212.916 164.865C212.856 161.582 214.439 124.218 214.439 124.218L237.093 124.268Z" fill="#37474F"/>
<path d="M231.869 200.875V200.193C231.431 200.391 230.413 204.443 228.596 206.171C227.152 207.545 225.181 209.133 224.68 210.664C224.159 212.258 227.424 213.137 228.773 212.888C230.342 212.599 233.06 211.447 233.742 210.38C234.424 209.312 234.743 207.737 235.298 206.955C235.853 206.173 237.131 205.299 237.431 204.394C237.595 203.896 237.4 202.807 237.169 201.886C236.956 201.042 236.726 200.114 236.45 200.193C236.45 200.296 236.45 200.713 236.45 200.713C236.117 201.098 235.197 201.48 234.16 201.521C233.489 201.547 231.864 201.408 231.869 200.875Z" fill="#263238"/>
<path d="M215.946 193.311C215.708 193.32 215.515 193.67 214.99 194.261C214.212 195.082 213.302 195.766 212.297 196.283C210.581 197.178 207.248 198.556 205.739 199.264C204.796 199.707 204.84 200.895 205.815 201.57C206.791 202.246 209.141 202.733 211.967 202.074C213.505 201.715 215.508 200.233 216.776 200.313C218.044 200.394 220.416 200.374 221.352 199.701C222.287 199.028 221.913 197.591 221.649 196.357C221.36 195.009 220.999 192.908 220.571 193V193.464C220.021 194.334 217.18 194.687 215.97 194.047L215.946 193.311Z" fill="#263238"/>
<path d="M224.463 141.684C224.463 141.684 220.803 140.608 218.086 137.87C218.086 137.87 219.316 140.273 222.975 142.509L222.192 163.212L224.463 141.684Z" fill="#263238"/>
<path d="M234.711 99.3918C234.711 99.3918 238.294 99.7201 238.04 106.556L237.248 117.446L237.27 133.787C233.903 137.608 218.974 137.328 213.863 133.481C213.863 133.481 214.442 114.143 214.788 106.701C215.032 101.41 216.248 98.7466 221.441 98.164L227.826 98.4451L234.711 99.3918Z" fill="#DA0F0F"/>
<path opacity="0.3" d="M224.535 102.977L223.713 108.718L221.798 108.683L223.958 109.024L224.535 102.977Z" fill="black"/>
<path d="M229.31 83.9862C229.31 87.9131 226.258 91.0969 222.493 91.0969C218.729 91.0969 215.845 87.9094 215.676 83.9862C215.375 77.0428 218.729 76.8762 222.493 76.8762C226.258 76.8762 229.31 80.0593 229.31 83.9862Z" fill="#263238"/>
<path d="M233.196 87.5127C233.196 87.5127 232.15 92.6362 231.731 93.4779C231.46 93.9921 230.999 94.3798 230.446 94.5589L230.519 90.9542L233.196 87.5127Z" fill="#263238"/>
<path d="M231.884 80.1726C231.884 80.1726 232.634 79.9848 233.43 81.2306C234.113 82.2988 234.268 84.6989 233.196 87.5127L231.226 87.7482L231.884 80.1726Z" fill="#263238"/>
<path d="M230.636 87.7502C231.031 87.9961 231.594 87.2051 232.081 86.6734C232.568 86.1417 234.158 85.4161 234.951 87.159C235.759 88.9353 234.251 91.282 232.999 91.6922C230.842 92.3985 230.518 90.9551 230.518 90.9551L230.354 99.071C227.49 103.506 221.003 103.347 223.335 98.856L223.341 96.3863C223.341 96.3863 221.387 96.6958 220.434 96.5419C218.847 96.2864 217.849 94.9807 217.367 93.1898C216.594 90.3131 216.301 87.9901 216.957 82.3322C217.676 76.1312 224.591 76.0664 228.326 78.518C232.06 80.9697 230.636 87.7502 230.636 87.7502Z" fill="#FFA8A7"/>
<path d="M230.391 97.2516C230.391 97.2516 229.383 99.433 227.586 100.77C226.583 101.512 225.421 102.007 224.192 102.215C224.192 102.215 225.872 103.329 226.586 104.907C227.301 106.484 232.34 102.141 232.295 99.0601C232.295 99.0601 231.504 95.9647 230.422 95.7662L230.391 97.2516Z" fill="#B10A0A"/>
<path d="M224.192 102.215C224.192 102.215 222.639 101.441 223.335 98.856L223.342 96.3863L222.661 96.4771C221.861 97.2527 221.294 98.2365 221.023 99.3175C220.867 100.024 220.484 103.608 221.167 104.32C221.788 104.969 222.8 102.407 224.192 102.215Z" fill="#B10A0A"/>
<path d="M227.985 80.9887C228.163 80.9519 228.348 80.964 228.52 81.0238C229.106 81.2903 229.232 83.115 229.335 83.6425C229.681 85.4188 229.969 88.4299 230.637 88.4433C230.836 88.447 231.59 87.1401 232.082 86.6732C232.763 86.027 231.885 80.1723 231.885 80.1723C231.885 80.1723 232.539 78.7171 231.228 77.2114C230.002 75.8038 228.075 75.4933 226.315 75.3956C224.24 75.2812 222.133 75.4387 220.09 74.9845C219.449 74.8072 218.797 74.6672 218.14 74.5653C218.079 74.5516 218.015 74.5623 217.962 74.5951C217.895 74.6496 217.905 74.7524 217.922 74.8374C218.05 75.4515 218.268 76.0432 218.569 76.593C217.352 76.4955 216.149 76.2585 214.985 75.8867C214.92 75.8587 214.849 75.8509 214.78 75.8642C214.643 75.9078 214.619 76.0895 214.627 76.233C214.709 77.7034 215.406 79.9158 216.597 80.78C217.528 81.4554 218.989 81.8682 220.136 81.8974C223.341 81.9815 225.332 81.3027 227.985 80.9887Z" fill="#263238"/>
<path d="M231.88 80.4814L234.268 79.1447C234.197 78.9792 234.092 78.8304 233.96 78.7078C233.828 78.5852 233.672 78.4916 233.502 78.4328C233.332 78.3741 233.151 78.3516 232.972 78.3668C232.793 78.382 232.618 78.4345 232.46 78.521C232.137 78.7164 231.898 79.0259 231.791 79.3885C231.683 79.7512 231.715 80.141 231.88 80.4814Z" fill="#263238"/>
<path d="M223.342 96.3863C223.342 96.3863 226.883 95.642 228.121 94.9559C228.95 94.4963 229.632 93.6998 229.832 93.1898C229.647 93.941 229.316 94.6485 228.859 95.2725C227.954 96.4801 223.341 97.369 223.341 97.369L223.342 96.3863Z" fill="#F28F8F"/>
<path d="M224.192 86.8263C224.204 86.9644 224.255 87.0962 224.34 87.2056C224.425 87.315 224.539 87.3973 224.67 87.4424C224.801 87.4875 224.942 87.4935 225.076 87.4596C225.21 87.4257 225.332 87.3534 225.425 87.2515C225.519 87.1497 225.581 87.0226 225.604 86.886C225.627 86.7494 225.61 86.609 225.554 86.4822C225.498 86.3553 225.407 86.2474 225.291 86.1716C225.176 86.0958 225.04 86.0555 224.902 86.0555C224.805 86.0592 224.709 86.0821 224.621 86.1229C224.532 86.1637 224.453 86.2215 224.387 86.2932C224.321 86.3648 224.27 86.4488 224.237 86.5403C224.203 86.6318 224.188 86.729 224.192 86.8263Z" fill="#263238"/>
<path d="M225.332 83.7621L226.85 84.6367C226.959 84.4203 226.983 84.1708 226.918 83.9375C226.852 83.7042 226.702 83.5038 226.496 83.3758C226.396 83.3193 226.285 83.2844 226.17 83.2733C226.055 83.2623 225.939 83.2754 225.829 83.3117C225.72 83.3481 225.619 83.4069 225.533 83.4845C225.448 83.562 225.379 83.6566 225.332 83.7621Z" fill="#263238"/>
<path d="M223.662 91.9399L222.042 92.5731C222.073 92.6847 222.128 92.7885 222.202 92.8781C222.275 92.9676 222.367 93.041 222.47 93.0936C222.573 93.1462 222.686 93.1768 222.802 93.1837C222.918 93.1905 223.034 93.1734 223.142 93.1333C223.363 93.0366 223.54 92.8599 223.636 92.6386C223.732 92.4173 223.742 92.1678 223.662 91.9399Z" fill="#F28F8F"/>
<path d="M217.683 84.4139L219.068 83.302C219.006 83.2052 218.924 83.1225 218.827 83.0595C218.731 82.9965 218.623 82.9545 218.509 82.9363C218.396 82.9181 218.279 82.9242 218.168 82.954C218.057 82.9838 217.954 83.0368 217.864 83.1094C217.679 83.266 217.557 83.486 217.524 83.7269C217.49 83.9677 217.547 84.2125 217.683 84.4139Z" fill="#263238"/>
<path d="M218.29 86.6164C218.302 86.7544 218.353 86.8862 218.438 86.9955C218.523 87.1048 218.638 87.1869 218.768 87.2319C218.899 87.2769 219.04 87.2828 219.174 87.2488C219.308 87.2148 219.43 87.1425 219.523 87.0406C219.617 86.9387 219.679 86.8117 219.702 86.6751C219.725 86.5385 219.707 86.3982 219.652 86.2714C219.596 86.1445 219.505 86.0367 219.389 85.9609C219.273 85.8852 219.138 85.8448 219 85.8448C218.902 85.8484 218.807 85.8713 218.718 85.9121C218.63 85.953 218.55 86.0109 218.484 86.0826C218.419 86.1544 218.367 86.2385 218.334 86.3301C218.301 86.4217 218.286 86.519 218.29 86.6164Z" fill="#263238"/>
<path d="M222.088 86.0219L222.006 90.5104L219.462 89.9259L222.088 86.0219Z" fill="#F28F8F"/>
<path d="M241.679 90.5338C242.701 89.1767 244.768 92.19 245.726 94.2664C246.685 96.3427 246.696 97.5191 245.914 98.3433C245.132 99.1675 243.647 98.6672 242.163 96.7002C240.678 94.7333 241.095 91.5363 241.679 90.5338Z" fill="#27DEBF"/>
<path d="M241.679 90.5338C242.701 89.1767 244.768 92.19 245.726 94.2664C246.685 96.3427 246.696 97.5191 245.914 98.3433C245.132 99.1675 243.647 98.6672 242.163 96.7002C240.678 94.7333 241.095 91.5363 241.679 90.5338Z" fill="#570101"/>
<path d="M248.873 90.9379C245.266 99.4395 240.195 104.194 237.927 109.649C234.953 109.446 232.638 102.264 234.851 99.1906C234.851 99.1906 243.55 89.761 244.337 86.0552C245.036 82.7655 245.975 77.3392 245.894 74.5617C245.871 74.0995 245.68 73.6614 245.359 73.3293C244.446 72.345 244.445 71.5554 243.859 70.4696C243.401 69.6223 242.901 69.3057 243.044 69.1155C243.227 68.8719 243.806 68.5511 244.525 69.0059C244.887 69.2348 245.123 69.503 245.648 70.0846C245.759 68.9958 245.582 67.897 245.135 66.8983C244.122 64.6116 244.369 63.4444 247.452 64.2591C249.384 64.7706 250.596 66.3813 250.886 71.0301C250.969 72.3697 251.078 75.1428 250.919 76.8368C250.585 80.4154 250.37 84.1448 249.93 87.1081C249.742 88.4245 249.387 89.7114 248.873 90.9379Z" fill="#FFA8A7"/>
<path d="M233.972 99.29L241.646 90.5104C241.646 90.5104 240.736 92.6518 242.731 95.7659C244.727 98.8801 245.915 98.3435 245.915 98.3435C245.915 98.3435 241.386 104.964 240.171 107.18C238.956 109.396 237.698 111.264 237.698 111.264C237.698 111.264 237.394 112.046 236.266 112.046C235.138 112.046 232.155 107.044 233.972 99.29Z" fill="#A30707"/>
<path d="M171.738 119.028L175.351 123.845L171.47 128.299L166.469 122.442L171.738 119.028Z" fill="#F28F8F"/>
<path d="M159.918 108.079C163.069 108.227 164.571 108.715 166.22 110.661C167.831 112.56 176.119 124.554 176.119 124.554C176.119 124.554 174.66 128.648 171.47 128.299L165.668 122.31L159.918 108.079Z" fill="#455A64"/>
<path d="M144.458 208.083C144.234 209.337 144.113 210.608 144.097 211.882C144.053 214.188 143.63 215.006 143.574 216.899C143.51 219.062 143.883 219.871 144.76 221.087C145.636 222.302 147.936 223.406 148.908 221.351C149.892 219.272 149.755 217.95 149.444 215.829C149.123 213.637 149.082 212.424 148.896 210.752C148.732 209.277 148.535 208.157 148.535 208.157L144.458 208.083Z" fill="#263238"/>
<path d="M150.996 189.949L143.409 189.811C143.522 194.882 144.327 203.324 144.458 208.082C144.483 208.978 144.436 215.042 144.773 216.884C145.28 219.653 148.562 219.28 148.736 217.623C148.91 215.966 148.525 208.886 148.535 208.156C148.506 205.104 149.935 197.141 150.683 191.663C150.72 191.394 150.961 190.211 150.996 189.949Z" fill="#FFBDA7"/>
<path d="M162.145 204.136C162.145 204.136 161.753 204.159 161.691 204.477C161.618 204.858 161.601 205.46 161.443 206.085C161.224 206.954 161.041 208.385 161.172 209.093C161.304 209.801 162.918 210.856 164.022 211.041C165.126 211.227 166.684 212.319 167.549 213.135C168.609 214.133 170.896 215.078 172.453 215.066C174.296 215.053 175.581 214.451 176.188 213.464C176.822 212.432 175.635 212.355 173.528 210.987C173.05 210.677 172.507 210.325 171.894 209.925C168.557 207.742 167.335 206.572 166.391 204.389L162.145 204.136Z" fill="#263238"/>
<path d="M166.418 202.949C166.362 201.379 167.166 189.811 167.166 189.811L160.64 190.547C162.182 199.768 162.308 202.909 162.131 204.251C162.099 204.377 162.086 204.508 162.091 204.638C162.097 206.429 164.116 207.395 165.691 208.589C166.313 209.061 167.912 210.515 169.786 211.154C170.998 211.568 173.239 211.724 173.527 210.987C171.61 209.521 169.003 207.606 167.478 205.932C166.751 205.134 166.474 204.519 166.418 202.949Z" fill="#FFBDA7"/>
<path d="M145.169 137.507C141.609 145.293 145.297 172.72 145.297 172.72C145.19 173.983 143.748 176.469 143.21 182.03C142.575 188.6 144.382 206.191 144.382 206.191C144.382 206.191 146.116 207.489 148.63 206.282C148.63 206.282 153.223 180.437 154.046 173.904C154.764 168.203 156.143 155.666 156.143 155.666L160.061 173.873C160.061 173.873 159.055 177.067 158.82 179.499C158.448 183.342 162.185 202.627 162.185 202.627C162.185 202.627 163.934 203.552 166.417 202.545C166.417 202.545 168.073 177.629 168.42 173.001C169.002 165.228 166.941 140.971 165.516 136.37L145.169 137.507Z" fill="#3064A7"/>
<path opacity="0.2" d="M156.143 155.665L157.299 148.434C157.299 148.434 162.187 147.42 164.405 145.332C164.405 145.332 162.079 148.231 158.624 149.179L157.326 154.747L159.595 171.605L156.143 155.665Z" fill="black"/>
<path d="M146.994 113.323L151.838 114.586V104.336C149.162 103.638 146.994 105.183 146.994 107.787V113.323Z" fill="#4D4D4D"/>
<path d="M156.574 105.792L154.836 105.752C149.54 105.63 145.342 101.054 145.458 95.5309C145.428 89.5111 150.112 84.6068 155.884 84.5751C161.655 84.5437 166.359 89.3976 166.389 95.4181L166.374 96.0395C166.242 101.552 161.86 105.914 156.574 105.792Z" fill="#4D4D4D"/>
<path d="M148.465 87.0965C148.423 86.9206 148.345 86.7553 148.236 86.611C148.128 86.4667 147.99 86.3464 147.833 86.2579C147.675 86.1693 147.501 86.1143 147.322 86.0963C147.142 86.0783 146.961 86.0978 146.789 86.1534L147.253 87.9436C147.155 87.8225 147.037 87.7192 146.904 87.6384C146.748 87.5482 146.575 87.4916 146.396 87.4723C146.217 87.4529 146.036 87.4712 145.865 87.526C145.693 87.5809 145.535 87.6709 145.401 87.7905C145.266 87.9101 145.158 88.0566 145.083 88.2205L147.442 89.6122C147.561 89.3721 147.615 89.1051 147.6 88.8377C147.928 88.6987 148.195 88.4468 148.354 88.1274C148.513 87.808 148.552 87.4423 148.465 87.0965Z" fill="#4D4D4D"/>
<path d="M151.325 108.497C151.325 108.497 147.822 108.994 146.482 109.429C148.356 114.034 145.415 121.147 145.415 121.147L148.19 129.702C146.276 133.634 144.693 135.584 144.044 138.779C145.809 142.231 158.275 145.528 166.388 139.233C166.388 139.233 166.126 130.493 165.092 125.399C167.75 120.207 167.317 118.685 166.774 116.875C165.512 112.665 162.96 111.045 159.918 108.078L158.083 107.885L151.325 108.497Z" fill="#37474F"/>
<path d="M148.511 133.131C150.015 131.583 153.208 131.143 153.208 131.143L150.279 129.469L146.996 121.537C148.371 118.838 149.05 115.837 148.97 112.808L147.086 112.356C147.314 116.551 145.416 121.147 145.416 121.147L148.191 129.702C146.277 133.634 144.694 135.584 144.045 138.779C145.252 141.141 151.475 143.431 157.884 142.622C149.296 142.048 147.062 134.623 148.511 133.131Z" fill="#263238"/>
<path d="M157.185 142.698C157.302 142.687 157.419 142.673 157.536 142.66C157.418 142.663 157.301 142.676 157.185 142.698Z" fill="#E6E6E6"/>
<path d="M162.492 89.9502C163.533 90.9072 164.834 92.9857 164.73 99.0564C164.641 104.202 163.049 105.482 162.249 105.852C161.449 106.222 159.898 106.009 158.391 105.754L158.373 107.885C158.373 107.885 160.36 110.091 160.236 111.508C160.112 112.925 157.41 113.512 155.456 112.14C153.502 110.767 151.838 108.477 151.838 108.477L151.819 102.003C151.819 102.003 150.937 102.904 149.428 101.544C148.182 100.42 147.755 98.515 148.716 97.4867C149.677 96.4584 151.465 96.7273 152.157 98.1825C154.456 97.9288 156.692 97.2697 158.762 96.2355C161.57 94.7647 162.695 92.1069 162.492 89.9502Z" fill="#FFBDA7"/>
<path d="M158.39 97.8778C158.387 97.999 158.349 98.1166 158.28 98.2164C158.211 98.3162 158.115 98.3937 158.003 98.4396C157.891 98.4854 157.768 98.4975 157.649 98.4745C157.53 98.4514 157.421 98.3941 157.334 98.3097C157.247 98.2253 157.187 98.1173 157.161 97.9991C157.134 97.8808 157.143 97.7574 157.185 97.644C157.228 97.5305 157.302 97.4319 157.4 97.3603C157.497 97.2887 157.614 97.2471 157.735 97.2407C157.906 97.2388 158.071 97.3048 158.193 97.4241C158.316 97.5435 158.387 97.7066 158.39 97.8778Z" fill="#263238"/>
<path d="M158.621 102.189L160.236 102.717C160.21 102.828 160.163 102.932 160.095 103.024C160.028 103.115 159.943 103.192 159.845 103.249C159.747 103.306 159.638 103.342 159.525 103.356C159.413 103.369 159.298 103.359 159.19 103.326C158.969 103.244 158.787 103.081 158.682 102.87C158.576 102.659 158.555 102.416 158.621 102.189Z" fill="#F79776"/>
<path d="M164.203 95.5553L162.738 95.0545C162.76 94.9563 162.803 94.8639 162.864 94.7834C162.924 94.7028 163.001 94.6359 163.089 94.587C163.177 94.5381 163.274 94.5083 163.374 94.4995C163.474 94.4907 163.575 94.5031 163.67 94.536C163.869 94.61 164.033 94.7551 164.132 94.9433C164.23 95.1315 164.255 95.3495 164.203 95.5553Z" fill="#263238"/>
<path d="M152.165 97.5707L152.148 99.7474C152.287 99.7528 152.425 99.7298 152.555 99.6799C152.684 99.6299 152.802 99.554 152.901 99.4567C153.001 99.3595 153.079 99.243 153.132 99.1144C153.184 98.9858 153.21 98.8478 153.208 98.7089C153.212 98.4217 153.107 98.1437 152.913 97.932C152.719 97.7203 152.451 97.591 152.165 97.5707Z" fill="#4D4D4D"/>
<path d="M163.696 97.6647C163.693 97.7859 163.655 97.9035 163.586 98.0033C163.518 98.1031 163.422 98.1806 163.309 98.2265C163.197 98.2723 163.075 98.2844 162.956 98.2614C162.837 98.2383 162.727 98.181 162.641 98.0966C162.554 98.0122 162.493 97.9042 162.467 97.786C162.441 97.6677 162.449 97.5443 162.492 97.4309C162.534 97.3174 162.609 97.2188 162.706 97.1472C162.804 97.0756 162.92 97.034 163.041 97.0276C163.212 97.0257 163.377 97.0916 163.5 97.211C163.622 97.3303 163.693 97.4934 163.696 97.6647Z" fill="#263238"/>
<path d="M160.251 96.7828L160.235 100.999L162.197 100.353L160.251 96.7828Z" fill="#F79776"/>
<path d="M158.391 105.755C156.803 105.547 153.535 104.586 153.02 103.244C153.02 103.244 153.193 104.089 154.172 104.954C155.151 105.82 158.382 106.793 158.382 106.793L158.391 105.755Z" fill="#F79776"/>
<path d="M139.04 130.04C139.04 130.04 142.921 135.561 143.589 136.283C144.256 137.005 144.711 136.765 145.431 136.444C146.31 136.089 147.211 135.795 148.129 135.561C149.316 135.267 149.571 136.364 148.397 137.144C147.547 137.71 146.575 137.957 146.982 138.422C147.388 138.886 148.645 139.699 149.812 140.16C152.677 141.291 152.455 141.859 151.929 142.788C151.47 143.597 150.131 145.342 145.007 143.282C142.894 142.432 139.916 140.016 138.513 138.458C136.487 136.21 133.327 132.183 133.327 132.183L139.04 130.04Z" fill="#FFBDA7"/>
<path d="M147.228 109.231C145.822 109.324 143.182 109.664 139.868 115.173C136.96 120.006 132.456 126.565 131.618 128.91C131.28 129.856 132.601 131.828 134.297 133.843C136.618 133.742 138.728 132.138 139.822 130.853C139.532 130.17 139.174 129.518 138.752 128.907L145.552 121.143C145.552 121.143 148.134 118.775 148.675 115.673C149.255 112.353 149.075 109.722 147.228 109.231Z" fill="#455A64"/>
<path d="M185.288 119.683L168.527 124.104L163.914 143.094L179.849 138.459L185.288 119.683Z" fill="#F0D164"/>
<g opacity="0.1">
<path opacity="0.1" d="M177.715 133.131C177.998 133.716 178.445 134.205 179.002 134.538C179.559 134.872 180.202 135.034 180.85 135.006L180.972 134.587L177.715 133.131Z" fill="black"/>
</g>
<g opacity="0.1">
<path opacity="0.1" d="M180.239 122.699C180.239 122.699 180.301 122.413 180.377 122.059C180.454 121.705 179.47 121.691 178.18 122.026L175.71 122.666C174.421 123.001 173.313 123.559 173.237 123.913L173.099 124.553L180.239 122.699Z" fill="black"/>
</g>
<path d="M181.526 120.293C181.575 120.072 181.176 120.014 180.636 120.163L179.658 120.434C179.658 120.434 179.95 119.05 177.78 119.533C175.609 120.016 175.136 121.589 175.136 121.589C175.136 121.589 174.668 121.722 174.092 121.886C173.515 122.05 172.992 122.361 172.924 122.581L172.8 122.98L181.435 120.703C181.435 120.703 181.478 120.514 181.526 120.293Z" fill="#37474F"/>
<path d="M180.338 120.976C179.547 121.167 179.218 121.272 179.1 121.817C178.964 122.44 178.909 122.896 178.909 122.896L175.088 123.908C175.088 123.908 175.272 123.12 175.331 122.812C175.39 122.504 175.26 122.319 174.652 122.481L174.601 122.237L180.588 120.71L180.338 120.976Z" fill="#37474F"/>
<path d="M180.469 122.76L180.607 122.12C180.683 121.766 179.7 121.751 178.41 122.086L175.941 122.727C174.652 123.062 173.543 123.621 173.467 123.974L173.329 124.614L180.469 122.76Z" fill="#37474F"/>
<path d="M183.522 125.779C183.522 125.779 182.895 127.927 182.752 128.438C182.609 128.95 180.731 129.87 179.499 130.209C178.267 130.548 176.918 130.949 177.502 132.675C178.039 134.265 180.066 134.628 181.099 134.583C182.131 134.538 183.544 133.55 184.101 131.958C184.811 129.926 184.428 127.757 184.711 126.571C184.993 125.384 184.139 125.072 183.522 125.779Z" fill="#FFBDA7"/>
</g>
<defs>
<linearGradient id="paint0_linear" x1="76" y1="36" x2="-54" y2="271" gradientUnits="userSpaceOnUse">
<stop stop-color="#060606" stop-opacity="0.13"/>
<stop offset="1" stop-opacity="0"/>
</linearGradient>
<linearGradient id="paint1_linear" x1="75" y1="71" x2="364.5" y2="71" gradientUnits="userSpaceOnUse">
<stop stop-opacity="0.1"/>
<stop offset="0.114721" stop-opacity="0.08"/>
<stop offset="1" stop-opacity="0"/>
</linearGradient>
<radialGradient id="paint2_radial" cx="0" cy="0" r="1" gradientUnits="userSpaceOnUse" gradientTransform="translate(77 205.5) rotate(6.75357) scale(76.531 147.06)">
<stop/>
<stop offset="1" stop-opacity="0"/>
</radialGradient>
<radialGradient id="paint3_radial" cx="0" cy="0" r="1" gradientUnits="userSpaceOnUse" gradientTransform="translate(175.658 182.321) rotate(22.9868) scale(65.4958 167.978)">
<stop/>
<stop offset="1" stop-opacity="0"/>
</radialGradient>
<clipPath id="clip0">
<rect width="140" height="163" fill="white" transform="translate(111 64)"/>
</clipPath>
</defs>
</svg>
