<svg width="140" height="163" viewBox="0 0 140 163" fill="none" xmlns="http://www.w3.org/2000/svg">
<g clip-path="url(#clip0)">
<path d="M46.8831 163C60.7042 163 71.9085 156.522 71.9085 148.532C71.9085 140.541 60.7042 134.064 46.8831 134.064C33.0619 134.064 21.8576 140.541 21.8576 148.532C21.8576 156.522 33.0619 163 46.8831 163Z" fill="#37474F" fill-opacity="0.12"/>
<path d="M111.991 154.433C125.812 154.433 137.016 147.955 137.016 139.965C137.016 131.974 125.812 125.497 111.991 125.497C98.1695 125.497 86.9652 131.974 86.9652 139.965C86.9652 147.955 98.1695 154.433 111.991 154.433Z" fill="#37474F" fill-opacity="0.12"/>
<path d="M24.9483 134.82C24.9483 134.82 24.4332 122.809 19.4066 116.127C14.3801 109.444 8.21405 108.479 5.15474 110.361C2.92531 111.732 3.22594 115.801 7.08547 118.46C10.945 121.12 18.3848 127.88 19.5477 132.298L24.9483 134.82Z" fill="#4BBDC1"/>
<path d="M21.6483 133.07C21.5667 133.065 21.4904 133.028 21.4358 132.967C21.3812 132.907 21.3527 132.827 21.3564 132.745C21.873 121.847 12.3234 115.051 9.73741 113.829C9.66482 113.792 9.60936 113.729 9.58285 113.652C9.55634 113.575 9.56088 113.491 9.5955 113.417C9.63013 113.344 9.6921 113.286 9.76818 113.258C9.84427 113.229 9.92845 113.232 10.0028 113.265C12.6681 114.526 22.5107 121.532 21.9783 132.774C21.9743 132.856 21.9378 132.934 21.8768 132.99C21.8157 133.045 21.7351 133.074 21.6526 133.07H21.6483Z" fill="white"/>
<path d="M22.5598 131.028C21.8613 130.927 21.1851 130.803 20.7257 130.298C20.1402 129.651 20.1906 128.67 19.9203 127.84C19.4786 126.481 18.1392 125.559 16.7423 125.267C15.3455 124.975 13.8924 125.215 12.5065 125.556C9.70601 126.244 7.01373 124.518 4.20615 124.722C3.19605 124.757 2.21417 125.064 1.36428 125.612C0.542418 126.192 -0.0530022 127.158 0.00391304 128.163C0.0930389 129.007 0.507932 129.783 1.16022 130.326C1.80833 130.86 2.52311 131.307 3.28651 131.656C4.10748 132.075 4.92829 132.494 5.74894 132.913C6.16679 133.1 6.55303 133.351 6.89382 133.657C7.50188 134.264 7.92461 135.44 7.75411 136.284C7.56415 137.225 6.79361 137.959 6.56473 138.891C6.26361 140.116 7.01056 141.422 8.08222 142.084C9.15388 142.745 10.4734 142.869 11.7306 142.796C12.9879 142.723 14.2305 142.472 15.4895 142.45C16.3376 142.435 17.2208 142.535 17.941 142.983C18.8202 143.53 19.3312 144.512 19.6637 145.494C19.8773 146.124 20.0422 146.789 20.4343 147.327C20.8655 147.872 21.4473 148.277 22.1072 148.492C23.3738 148.955 24.7634 148.953 26.0283 148.485C27.0661 148.087 27.5737 146.912 27.9617 145.895C28.35 144.832 28.5354 143.706 28.5082 142.574C28.4484 139.66 27.7908 136.788 26.5763 134.139C25.9925 132.92 25.1437 131.703 23.8606 131.281C23.4351 131.16 22.9999 131.075 22.5598 131.028Z" fill="#55D5D9"/>
<path d="M25.2804 144.087C25.2228 144.088 25.1667 144.07 25.1198 144.036C25.0728 144.003 25.0375 143.956 25.0186 143.902C22.0919 135.492 8.22792 128.172 3.15809 127.333C3.12155 127.328 3.08642 127.315 3.05475 127.296C3.02308 127.277 2.99553 127.252 2.97369 127.222C2.95186 127.193 2.93619 127.159 2.92761 127.123C2.91903 127.087 2.9177 127.05 2.92371 127.013C2.92973 126.977 2.94295 126.942 2.96262 126.91C2.98228 126.879 3.00799 126.852 3.03823 126.831C3.06847 126.81 3.10263 126.795 3.13871 126.787C3.17479 126.779 3.21206 126.779 3.24833 126.786C8.41399 127.64 22.5487 135.119 25.5418 143.718C25.5539 143.753 25.559 143.789 25.5569 143.825C25.5549 143.862 25.5457 143.897 25.5299 143.93C25.5141 143.963 25.4919 143.992 25.4648 144.016C25.4376 144.041 25.4059 144.059 25.3716 144.071C25.3423 144.082 25.3115 144.087 25.2804 144.087Z" fill="white"/>
<path d="M12.8225 139.483C12.7645 139.483 12.7081 139.465 12.6609 139.431C12.6138 139.397 12.5785 139.349 12.5598 139.294C12.5412 139.239 12.5402 139.18 12.557 139.125C12.5738 139.069 12.6075 139.02 12.6534 138.985C14.921 137.419 17.5995 136.557 20.3538 136.508H20.3598C20.4334 136.507 20.5042 136.535 20.5568 136.587C20.6094 136.638 20.6393 136.709 20.6402 136.782C20.641 136.856 20.6125 136.927 20.5611 136.979C20.5097 137.032 20.4395 137.062 20.3659 137.063C17.7316 137.121 15.1705 137.942 12.9915 139.425C12.943 139.463 12.8836 139.483 12.8225 139.483Z" fill="white"/>
<path d="M104.358 61.299C108.79 46.8949 113.103 37.4097 108.71 34.4724C104.617 35.2313 102.784 37.2582 101.914 42.6603C101.002 48.3277 99.1052 56.2203 97.9985 60.7787C97.1156 64.4185 95.3906 68.9932 93.9138 71.7786C93.6506 72.2663 93.2223 72.6441 92.7059 72.8439C91.3397 73.3797 90.6839 74.0783 89.57 74.8744C88.6978 75.4982 88.0549 75.5679 88.0948 75.8302C88.1461 76.1668 88.5399 76.7742 89.4639 76.6744C90.1216 76.5469 90.7616 76.3409 91.3703 76.0608C91.3703 76.0608 90.5636 78.2285 88.9826 79.5515C86.8405 81.3453 87.1603 83.1404 90.61 83.3493C91.8451 83.4244 94.7074 82.2967 97.3596 77.7718C98.124 76.4685 99.0113 74.335 99.723 72.5555C101.578 67.925 103.472 64.181 104.358 61.299Z" fill="#FFA8A7"/>
<path d="M109.492 34.3016C109.492 34.3016 106.081 34.1236 104.016 36.4055C101.95 38.6874 99.5355 52.3279 99.5355 52.3279C99.5355 52.3279 101.799 55.4426 107.766 54.1673L109.492 34.3016Z" fill="#A30707"/>
<path d="M125.448 131.056H120.869V139.232H125.448V131.056Z" fill="#FFA8A7"/>
<path d="M109.571 130.62L104.995 130.784L104.766 122.131L109.572 121.967L109.571 130.62Z" fill="#FFA8A7"/>
<path d="M126.093 60.2682C126.093 64.8291 125.423 101.532 125.423 101.532C125.529 102.845 126.709 105.264 126.454 110.305C126.107 117.152 125.644 135.144 125.644 135.144C125.644 135.144 123.421 136.499 120.545 135.25C120.545 135.25 116.214 110.329 115.393 103.543C114.677 97.6217 113.463 77.6839 113.463 77.6839L110.98 100.865C111.51 103.358 111.701 105.911 111.547 108.455C111.334 111.593 109.861 127.939 109.861 127.939C109.861 127.939 107.706 129.464 104.574 128.361C104.574 128.361 101.969 103.744 101.916 100.865C101.856 97.582 103.439 60.2183 103.439 60.2183L126.093 60.2682Z" fill="#37474F"/>
<path d="M120.869 136.875V136.193C120.431 136.391 119.413 140.443 117.596 142.171C116.152 143.545 114.181 145.133 113.68 146.664C113.159 148.258 116.424 149.137 117.773 148.888C119.342 148.599 122.06 147.447 122.742 146.38C123.424 145.312 123.743 143.737 124.298 142.955C124.854 142.173 126.131 141.299 126.431 140.394C126.596 139.896 126.4 138.807 126.169 137.886C125.956 137.042 125.726 136.114 125.45 136.193C125.45 136.296 125.45 136.713 125.45 136.713C125.117 137.098 124.198 137.48 123.16 137.521C122.489 137.547 120.864 137.408 120.869 136.875Z" fill="#263238"/>
<path d="M104.946 129.311C104.708 129.32 104.515 129.67 103.99 130.261C103.213 131.082 102.302 131.766 101.297 132.283C99.5815 133.178 96.2478 134.556 94.7395 135.264C93.7965 135.707 93.8396 136.895 94.8152 137.571C95.7908 138.246 98.1415 138.733 100.967 138.074C102.505 137.715 104.508 136.233 105.776 136.313C107.044 136.394 109.416 136.374 110.352 135.701C111.287 135.028 110.913 133.591 110.649 132.357C110.36 131.009 109.999 128.908 109.572 129V129.464C109.021 130.334 106.18 130.688 104.97 130.047L104.946 129.311Z" fill="#263238"/>
<path d="M113.463 77.6837C113.463 77.6837 109.803 76.6081 107.086 73.87C107.086 73.87 108.316 76.2732 111.975 78.5091L111.192 99.2116L113.463 77.6837Z" fill="#263238"/>
<path d="M123.711 35.3918C123.711 35.3918 127.294 35.7201 127.04 42.5563L126.248 53.4459L126.27 69.7872C122.903 73.6082 107.974 73.3283 102.863 69.4813C102.863 69.4813 103.442 50.1427 103.788 42.7008C104.033 37.4102 105.248 34.7466 110.441 34.164L116.826 34.4451L123.711 35.3918Z" fill="#DA0F0F"/>
<path opacity="0.3" d="M113.535 38.9775L112.713 44.7184L110.798 44.6826L112.958 45.0236L113.535 38.9775Z" fill="black"/>
<path d="M118.31 19.9862C118.31 23.9131 115.258 27.0969 111.493 27.0969C107.729 27.0969 104.845 23.9095 104.676 19.9862C104.375 13.0428 107.729 12.8762 111.493 12.8762C115.258 12.8762 118.31 16.0593 118.31 19.9862Z" fill="#263238"/>
<path d="M122.196 23.5127C122.196 23.5127 121.15 28.6362 120.732 29.4779C120.46 29.9921 119.999 30.3798 119.446 30.5589L119.519 26.9542L122.196 23.5127Z" fill="#263238"/>
<path d="M120.884 16.1726C120.884 16.1726 121.634 15.9848 122.43 17.2306C123.113 18.2988 123.268 20.6989 122.196 23.5127L120.226 23.7482L120.884 16.1726Z" fill="#263238"/>
<path d="M119.636 23.7502C120.031 23.9962 120.594 23.2051 121.081 22.6734C121.568 22.1417 123.158 21.4162 123.951 23.1591C124.759 24.9353 123.251 27.282 121.999 27.6922C119.842 28.3985 119.518 26.9552 119.518 26.9552L119.354 35.0711C116.49 39.5065 110.003 39.3467 112.335 34.856L112.341 32.3863C112.341 32.3863 110.387 32.6959 109.434 32.5419C107.847 32.2864 106.849 30.9807 106.367 29.1898C105.594 26.3132 105.301 23.9901 105.957 18.3322C106.676 12.1312 113.591 12.0664 117.326 14.5181C121.06 16.9697 119.636 23.7502 119.636 23.7502Z" fill="#FFA8A7"/>
<path d="M119.391 33.2517C119.391 33.2517 118.383 35.433 116.586 36.7704C115.583 37.5119 114.421 38.0067 113.192 38.2147C113.192 38.2147 114.872 39.329 115.587 40.9067C116.301 42.4845 121.34 38.1414 121.295 35.0601C121.295 35.0601 120.504 31.9647 119.422 31.7662L119.391 33.2517Z" fill="#B10A0A"/>
<path d="M113.192 38.2147C113.192 38.2147 111.639 37.4414 112.336 34.856L112.342 32.3863L111.661 32.4772C110.861 33.2527 110.294 34.2365 110.023 35.3175C109.867 36.0239 109.484 39.6083 110.167 40.3205C110.788 40.9691 111.8 38.4071 113.192 38.2147Z" fill="#B10A0A"/>
<path d="M116.985 16.9887C117.163 16.9519 117.348 16.964 117.52 17.0238C118.106 17.2903 118.232 19.115 118.335 19.6426C118.681 21.4188 118.969 24.43 119.637 24.4434C119.836 24.447 120.59 23.1401 121.082 22.6732C121.763 22.027 120.885 16.1723 120.885 16.1723C120.885 16.1723 121.539 14.7171 120.228 13.2114C119.002 11.8039 117.075 11.4933 115.315 11.3956C113.24 11.2812 111.134 11.4388 109.09 10.9845C108.449 10.8072 107.798 10.6672 107.14 10.5654C107.079 10.5517 107.015 10.5623 106.962 10.5951C106.895 10.6496 106.905 10.7524 106.922 10.8374C107.05 11.4515 107.268 12.0432 107.57 12.593C106.352 12.4955 105.149 12.2586 103.985 11.8867C103.92 11.8587 103.849 11.8509 103.78 11.8643C103.643 11.9079 103.62 12.0895 103.627 12.233C103.71 13.7034 104.406 15.9159 105.597 16.78C106.528 17.4554 107.989 17.8682 109.136 17.8975C112.341 17.9815 114.332 17.3027 116.985 16.9887Z" fill="#263238"/>
<path d="M120.88 16.4814L123.268 15.1448C123.197 14.9792 123.092 14.8304 122.96 14.7078C122.828 14.5852 122.672 14.4916 122.502 14.4329C122.332 14.3742 122.151 14.3517 121.972 14.3668C121.793 14.382 121.618 14.4345 121.46 14.521C121.137 14.7165 120.898 15.0259 120.791 15.3886C120.683 15.7512 120.715 16.141 120.88 16.4814Z" fill="#263238"/>
<path d="M112.342 32.3863C112.342 32.3863 115.883 31.642 117.121 30.9559C117.95 30.4963 118.632 29.6999 118.832 29.1898C118.647 29.941 118.316 30.6485 117.86 31.2725C116.954 32.4801 112.341 33.3691 112.341 33.3691L112.342 32.3863Z" fill="#F28F8F"/>
<path d="M113.192 22.8263C113.204 22.9644 113.255 23.0962 113.34 23.2056C113.425 23.315 113.539 23.3973 113.67 23.4424C113.801 23.4875 113.942 23.4935 114.076 23.4596C114.21 23.4257 114.332 23.3534 114.426 23.2515C114.519 23.1497 114.581 23.0226 114.604 22.886C114.627 22.7494 114.61 22.609 114.554 22.4822C114.499 22.3553 114.407 22.2474 114.291 22.1716C114.176 22.0958 114.04 22.0555 113.902 22.0555C113.805 22.0592 113.709 22.0821 113.621 22.1229C113.533 22.1637 113.453 22.2215 113.387 22.2932C113.321 22.3648 113.27 22.4488 113.237 22.5403C113.203 22.6318 113.188 22.729 113.192 22.8263Z" fill="#263238"/>
<path d="M114.332 19.7621L115.85 20.6368C115.959 20.4203 115.983 20.1709 115.918 19.9375C115.852 19.7042 115.702 19.5038 115.497 19.3759C115.396 19.3193 115.285 19.2844 115.17 19.2733C115.055 19.2623 114.939 19.2754 114.829 19.3117C114.72 19.3481 114.619 19.4069 114.533 19.4845C114.448 19.562 114.379 19.6566 114.332 19.7621Z" fill="#263238"/>
<path d="M112.662 27.9399L111.042 28.5731C111.073 28.6847 111.128 28.7885 111.202 28.8781C111.275 28.9676 111.367 29.041 111.47 29.0936C111.573 29.1462 111.686 29.1768 111.802 29.1837C111.918 29.1905 112.034 29.1734 112.142 29.1333C112.363 29.0366 112.54 28.8599 112.636 28.6386C112.732 28.4173 112.742 28.1678 112.662 27.9399Z" fill="#F28F8F"/>
<path d="M106.683 20.4139L108.068 19.3021C108.006 19.2052 107.924 19.1225 107.827 19.0595C107.731 18.9965 107.623 18.9545 107.509 18.9363C107.396 18.9182 107.279 18.9242 107.168 18.954C107.057 18.9838 106.954 19.0368 106.864 19.1094C106.679 19.266 106.557 19.486 106.524 19.7269C106.491 19.9678 106.547 20.2125 106.683 20.4139Z" fill="#263238"/>
<path d="M107.29 22.6164C107.302 22.7545 107.353 22.8862 107.438 22.9955C107.523 23.1048 107.638 23.187 107.769 23.232C107.899 23.277 108.04 23.2828 108.174 23.2488C108.309 23.2149 108.43 23.1425 108.524 23.0406C108.617 22.9387 108.679 22.8117 108.702 22.6751C108.725 22.5385 108.707 22.3982 108.652 22.2714C108.596 22.1446 108.505 22.0367 108.389 21.9609C108.273 21.8852 108.138 21.8448 108 21.8448C107.902 21.8485 107.807 21.8713 107.718 21.9122C107.63 21.953 107.551 22.0109 107.485 22.0827C107.419 22.1544 107.367 22.2385 107.334 22.3301C107.301 22.4217 107.286 22.519 107.29 22.6164Z" fill="#263238"/>
<path d="M111.088 22.0219L111.006 26.5104L108.462 25.9259L111.088 22.0219Z" fill="#F28F8F"/>
<path d="M130.679 26.5338C131.701 25.1767 133.768 28.19 134.726 30.2664C135.685 32.3427 135.696 33.5191 134.914 34.3433C134.132 35.1675 132.647 34.6672 131.163 32.7003C129.678 30.7333 130.095 27.5363 130.679 26.5338Z" fill="#27DEBF"/>
<path d="M130.679 26.5338C131.701 25.1767 133.768 28.19 134.726 30.2664C135.685 32.3427 135.696 33.5191 134.914 34.3433C134.132 35.1675 132.647 34.6672 131.163 32.7003C129.678 30.7333 130.095 27.5363 130.679 26.5338Z" fill="#570101"/>
<path d="M137.873 26.9379C134.266 35.4396 129.195 40.1936 126.927 45.6491C123.953 45.4462 121.638 38.2636 123.851 35.1906C123.851 35.1906 132.55 25.761 133.337 22.0553C134.036 18.7655 134.975 13.3392 134.894 10.5617C134.871 10.0995 134.68 9.66146 134.359 9.32929C133.446 8.34507 133.445 7.55545 132.859 6.46966C132.401 5.62232 131.901 5.30569 132.044 5.11547C132.227 4.87191 132.806 4.55115 133.525 5.00587C133.887 5.23482 134.123 5.50298 134.648 6.08459C134.759 4.99585 134.582 3.89704 134.135 2.89835C133.122 0.611578 133.369 -0.555557 136.452 0.259148C138.384 0.770622 139.596 2.38128 139.886 7.03009C139.969 8.36967 140.078 11.1428 139.919 12.8368C139.585 16.4154 139.37 20.1448 138.93 23.1082C138.742 24.4245 138.387 25.7114 137.873 26.9379Z" fill="#FFA8A7"/>
<path d="M122.972 35.29L130.646 26.5104C130.646 26.5104 129.736 28.6518 131.732 31.766C133.727 34.8801 134.915 34.3435 134.915 34.3435C134.915 34.3435 130.386 40.9637 129.171 43.1801C127.956 45.3965 126.698 47.2639 126.698 47.2639C126.698 47.2639 126.394 48.0464 125.266 48.0464C124.138 48.0464 121.155 43.044 122.972 35.29Z" fill="#A30707"/>
<path d="M60.7378 55.0278L64.3507 59.8449L60.4705 64.2986L55.4688 58.4425L60.7378 55.0278Z" fill="#F28F8F"/>
<path d="M48.9179 44.0788C52.0689 44.2267 53.5706 44.7148 55.2199 46.6606C56.8306 48.5603 65.1193 60.5542 65.1193 60.5542C65.1193 60.5542 63.6599 64.6476 60.4702 64.2994L54.6678 58.3098L48.9179 44.0788Z" fill="#455A64"/>
<path d="M33.4584 144.083C33.2342 145.337 33.1132 146.608 33.0967 147.882C33.0532 150.188 32.6297 151.006 32.5742 152.899C32.51 155.062 32.8834 155.871 33.7597 157.087C34.6361 158.302 36.936 159.406 37.908 157.351C38.8921 155.272 38.7554 153.95 38.4445 151.829C38.1235 149.637 38.0824 148.424 37.8961 146.752C37.7321 145.277 37.5356 144.157 37.5356 144.157L33.4584 144.083Z" fill="#263238"/>
<path d="M39.9956 125.949L32.4096 125.811C32.5219 130.882 33.327 139.324 33.4584 144.082C33.4827 144.978 33.436 151.042 33.7729 152.884C34.2802 155.653 37.5619 155.28 37.736 153.623C37.9102 151.966 37.5249 144.886 37.5353 144.156C37.5064 141.105 38.9349 133.141 39.6835 127.663C39.7203 127.394 39.9611 126.211 39.9956 125.949Z" fill="#FFBDA7"/>
<path d="M51.1454 140.136C51.1454 140.136 50.7529 140.159 50.6913 140.477C50.6184 140.858 50.6011 141.46 50.4432 142.085C50.2243 142.954 50.0409 144.385 50.1723 145.093C50.3036 145.801 51.9184 146.856 53.0222 147.042C54.1259 147.227 55.6845 148.319 56.549 149.135C57.6092 150.133 59.8958 151.078 61.4532 151.066C63.2966 151.053 64.5811 150.451 65.1884 149.464C65.8222 148.432 64.635 148.356 62.5285 146.987C62.05 146.677 61.5069 146.325 60.8937 145.925C57.5571 143.742 56.3354 142.572 55.3912 140.389L51.1454 140.136Z" fill="#263238"/>
<path d="M55.4184 138.949C55.3622 137.379 56.1659 125.811 56.1659 125.811L49.6396 126.547C51.1824 135.768 51.3076 138.909 51.1315 140.251C51.0993 140.377 51.0857 140.508 51.0909 140.638C51.0975 142.429 53.1163 143.395 54.6907 144.589C55.3131 145.061 56.9116 146.515 58.7857 147.154C59.9977 147.568 62.2395 147.724 62.527 146.987C60.6104 145.521 58.003 143.606 56.4779 141.932C55.7509 141.134 55.4741 140.519 55.4184 138.949Z" fill="#FFBDA7"/>
<path d="M34.1688 73.5071C30.609 81.293 34.297 108.72 34.297 108.72C34.19 109.983 32.7477 112.469 32.2099 118.03C31.5748 124.6 33.3825 142.191 33.3825 142.191C33.3825 142.191 35.1157 143.489 37.63 142.282C37.63 142.282 42.2233 116.437 43.0459 109.904C43.7644 104.203 45.1428 91.6664 45.1428 91.6664L49.0607 109.873C49.0607 109.873 48.0549 113.067 47.8202 115.499C47.4483 119.342 51.1853 138.627 51.1853 138.627C51.1853 138.627 52.9338 139.552 55.4174 138.545C55.4174 138.545 57.0733 113.629 57.4199 109.001C58.0022 101.228 55.9406 76.9708 54.5163 72.3702L34.1688 73.5071Z" fill="#3064A7"/>
<path opacity="0.2" d="M45.1428 91.6654L46.2986 84.4344C46.2986 84.4344 51.1875 83.42 53.4055 81.3324C53.4055 81.3324 51.0788 84.2308 47.6237 85.1792L46.3259 90.7472L48.5949 107.605L45.1428 91.6654Z" fill="black"/>
<path d="M35.9938 49.3232L40.8377 50.5865V40.3358C38.1621 39.638 35.9938 41.1832 35.9938 43.7866V49.3232Z" fill="#4D4D4D"/>
<path d="M45.5745 41.7918L43.8364 41.7519C38.5401 41.6301 34.3418 37.0541 34.4585 31.5309C34.4284 25.5111 39.1117 20.6068 44.884 20.5751C50.6555 20.5437 55.359 25.3976 55.3887 31.4182L55.3741 32.0395C55.2423 37.5519 50.8596 41.9136 45.5745 41.7918Z" fill="#4D4D4D"/>
<path d="M37.4648 23.0965C37.423 22.9206 37.3452 22.7553 37.2365 22.611C37.1277 22.4667 36.9903 22.3465 36.8329 22.2579C36.6755 22.1693 36.5015 22.1143 36.3219 22.0963C36.1422 22.0783 35.9608 22.0978 35.789 22.1534L36.2528 23.9436C36.1549 23.8225 36.0368 23.7192 35.9038 23.6384C35.748 23.5482 35.5751 23.4916 35.3962 23.4723C35.2173 23.4529 35.0363 23.4712 34.8649 23.5261C34.6935 23.5809 34.5354 23.671 34.4008 23.7905C34.2662 23.9101 34.158 24.0566 34.0833 24.2205L36.4426 25.6122C36.5613 25.3721 36.6155 25.1051 36.5997 24.8377C36.9278 24.6987 37.1954 24.4468 37.3541 24.1274C37.5128 23.808 37.5521 23.4423 37.4648 23.0965Z" fill="#4D4D4D"/>
<path d="M40.3249 44.4965C40.3249 44.4965 36.8225 44.9936 35.4818 45.4291C37.3561 50.0336 34.415 57.1468 34.415 57.1468L37.1897 65.7018C35.2763 69.6336 33.6928 71.5842 33.0444 74.7787C34.8085 78.2314 47.2747 81.5278 55.3885 75.2335C55.3885 75.2335 55.126 66.4926 54.0923 61.3993C56.7503 56.2074 56.3169 54.6849 55.7742 52.8747C54.5121 48.6646 51.9604 47.0451 48.9177 44.0781L47.0832 43.8855L40.3249 44.4965Z" fill="#37474F"/>
<path d="M37.5115 69.1308C39.0152 67.5835 42.2082 67.1431 42.2082 67.1431L39.2793 65.4692L35.9957 57.5374C37.3711 54.8382 38.0497 51.8372 37.9698 48.808L36.0864 48.3557C36.3144 52.5508 34.416 57.147 34.416 57.147L37.1907 65.702C35.2772 69.6338 33.6938 71.5844 33.0454 74.779C34.2525 77.1415 40.4752 79.4309 46.8838 78.6216C38.2959 78.0475 36.0616 70.6226 37.5115 69.1308Z" fill="#263238"/>
<path d="M46.1855 78.6978C46.3022 78.6869 46.419 78.6735 46.5357 78.6596C46.4182 78.6635 46.3011 78.6763 46.1855 78.6978Z" fill="#E6E6E6"/>
<path d="M51.492 25.9502C52.5335 26.9072 53.8343 28.9857 53.7297 35.0564C53.6414 40.2019 52.049 41.4815 51.2488 41.8517C50.4486 42.2219 48.898 42.0086 47.3914 41.7543L47.3732 43.8854C47.3732 43.8854 49.3599 46.0911 49.2361 47.5081C49.1123 48.9252 46.4098 49.5121 44.4557 48.1397C42.5016 46.7672 40.8384 44.477 40.8384 44.477L40.8189 38.0033C40.8189 38.0033 39.9372 38.9044 38.4283 37.5437C37.1824 36.4196 36.7553 34.515 37.7163 33.4867C38.6773 32.4584 40.4648 32.7273 41.1575 34.1825C43.4565 33.9289 45.6924 33.2697 47.7619 32.2355C50.5702 30.7647 51.6946 28.107 51.492 25.9502Z" fill="#FFBDA7"/>
<path d="M47.3897 33.8779C47.3868 33.999 47.3487 34.1167 47.28 34.2164C47.2113 34.3162 47.1151 34.3938 47.0031 34.4396C46.891 34.4854 46.7681 34.4976 46.6493 34.4745C46.5305 34.4514 46.421 34.3942 46.3342 34.3097C46.2474 34.2253 46.1871 34.1174 46.1606 33.9991C46.1341 33.8809 46.1427 33.7575 46.1852 33.644C46.2277 33.5306 46.3023 33.432 46.3999 33.3603C46.4975 33.2887 46.6139 33.2471 46.7347 33.2407C46.9057 33.2389 47.0706 33.3048 47.1933 33.4242C47.316 33.5435 47.3866 33.7066 47.3897 33.8779Z" fill="#263238"/>
<path d="M47.6213 38.1893L49.2356 38.7169C49.2104 38.8277 49.1627 38.9321 49.0955 39.0237C49.0283 39.1152 48.943 39.192 48.8449 39.2491C48.7468 39.3062 48.638 39.3425 48.5253 39.3557C48.4125 39.3689 48.2983 39.3587 48.1897 39.3258C47.9688 39.2437 47.7872 39.0807 47.6817 38.8698C47.5762 38.6588 47.5546 38.4156 47.6213 38.1893Z" fill="#F79776"/>
<path d="M53.2029 31.5553L51.7382 31.0545C51.7605 30.9563 51.8033 30.8639 51.8637 30.7834C51.9241 30.7028 52.0007 30.6359 52.0886 30.587C52.1766 30.5381 52.2738 30.5083 52.374 30.4995C52.4742 30.4907 52.5751 30.5031 52.6702 30.536C52.8691 30.61 53.0335 30.7551 53.1319 30.9433C53.2302 31.1315 53.2555 31.3495 53.2029 31.5553Z" fill="#263238"/>
<path d="M41.1653 33.5707L41.1483 35.7474C41.2869 35.7529 41.4253 35.7299 41.5548 35.6799C41.6843 35.6299 41.8023 35.554 41.9015 35.4568C42.0007 35.3595 42.079 35.2431 42.1316 35.1145C42.1843 34.9859 42.2102 34.8479 42.2077 34.7089C42.2122 34.4217 42.1066 34.1437 41.9128 33.932C41.7189 33.7204 41.4514 33.5911 41.1653 33.5707Z" fill="#4D4D4D"/>
<path d="M52.6962 33.6647C52.6933 33.7859 52.6552 33.9035 52.5865 34.0033C52.5178 34.1031 52.4216 34.1806 52.3096 34.2265C52.1976 34.2723 52.0746 34.2844 51.9558 34.2614C51.837 34.2383 51.7275 34.1811 51.6407 34.0966C51.5539 34.0122 51.4936 33.9042 51.4671 33.786C51.4407 33.6678 51.4492 33.5444 51.4917 33.4309C51.5342 33.3174 51.6088 33.2189 51.7064 33.1472C51.804 33.0756 51.9204 33.034 52.0412 33.0276C52.2123 33.0257 52.3772 33.0916 52.4999 33.211C52.6226 33.3303 52.6932 33.4935 52.6962 33.6647Z" fill="#263238"/>
<path d="M49.2514 32.7828L49.2354 36.9991L51.1975 36.3534L49.2514 32.7828Z" fill="#F79776"/>
<path d="M47.391 41.7553C45.8034 41.547 42.5352 40.5862 42.0198 39.2437C42.0198 39.2437 42.1934 40.0886 43.1724 40.9545C44.1514 41.8203 47.3817 42.7931 47.3817 42.7931L47.391 41.7553Z" fill="#F79776"/>
<path d="M28.0405 66.0398C28.0405 66.0398 31.9214 71.5613 32.5888 72.2832C33.2562 73.0051 33.7108 72.7647 34.4315 72.4437C35.31 72.0894 36.2114 71.7946 37.1294 71.5613C38.3161 71.2671 38.5712 72.3638 37.3969 73.1445C36.5471 73.71 35.5747 73.9572 35.9816 74.4217C36.3885 74.8861 37.6448 75.6989 38.8125 76.1605C41.6768 77.2911 41.4554 77.8593 40.9286 78.7882C40.4696 79.5973 39.1311 81.3422 34.0073 79.2819C31.8937 78.4316 28.9161 76.0158 27.5131 74.4582C25.4871 72.2102 22.3271 68.1827 22.3271 68.1827L28.0405 66.0398Z" fill="#FFBDA7"/>
<path d="M36.228 45.2306C34.8224 45.3244 32.1819 45.6637 28.8677 51.1735C25.9604 56.0064 21.4558 62.5652 20.6184 64.9102C20.2803 65.8557 21.6013 67.8276 23.2971 69.843C25.6177 69.7419 27.7277 68.1381 28.8225 66.8531C28.5324 66.1699 28.1738 65.518 27.7523 64.9073L34.5519 57.1426C34.5519 57.1426 37.1345 54.7747 37.6752 51.6732C38.2548 48.3526 38.0746 45.7219 36.228 45.2306Z" fill="#455A64"/>
<path d="M74.2882 55.683L57.5272 60.1036L52.9136 79.0937L68.8489 74.4592L74.2882 55.683Z" fill="#F0D164"/>
<g opacity="0.1">
<path opacity="0.1" d="M66.7153 69.1308C66.9979 69.7158 67.4453 70.2052 68.0023 70.5384C68.5594 70.8717 69.2017 71.0343 69.8501 71.0062L69.9717 70.5866L66.7153 69.1308Z" fill="black"/>
</g>
<g opacity="0.1">
<path opacity="0.1" d="M69.239 58.699C69.239 58.699 69.3013 58.4126 69.3774 58.0589C69.4536 57.7053 68.4702 57.6906 67.1801 58.0255L64.7101 58.6661C63.421 59.001 62.3134 59.5595 62.2365 59.9131L62.0986 60.5532L69.239 58.699Z" fill="black"/>
</g>
<path d="M70.5265 56.2929C70.5751 56.0717 70.1762 56.0142 69.6362 56.1633L68.6582 56.4341C68.6582 56.4341 68.9501 55.0498 66.7798 55.533C64.6095 56.0162 64.1357 57.5891 64.1357 57.5891C64.1357 57.5891 63.6682 57.7218 63.0917 57.8857C62.5153 58.0497 61.9921 58.3612 61.9242 58.5811L61.8002 58.9796L70.4348 56.703C70.4348 56.703 70.4781 56.514 70.5265 56.2929Z" fill="#37474F"/>
<path d="M69.3375 56.976C68.5466 57.1667 68.2175 57.2722 68.0995 57.8173C67.964 58.4398 67.9091 58.8965 67.9091 58.8965L64.088 59.908C64.088 59.908 64.2723 59.1196 64.3312 58.812C64.3901 58.5044 64.2599 58.3195 63.6521 58.4807L63.6008 58.2372L69.5883 56.7103L69.3375 56.976Z" fill="#37474F"/>
<path d="M69.4689 58.7599L69.6073 58.1198C69.6834 57.7662 68.7001 57.7511 67.41 58.0859L64.9407 58.7272C63.6516 59.0621 62.5433 59.6206 62.4671 59.9735L62.3292 60.6143L69.4689 58.7599Z" fill="#37474F"/>
<path d="M72.5217 61.7793C72.5217 61.7793 71.8951 63.9267 71.7518 64.4384C71.6086 64.9502 69.7306 65.8696 68.4987 66.2086C67.2667 66.5477 65.9185 66.9493 66.5015 68.6747C67.0393 70.2651 69.0664 70.6278 70.0989 70.5829C71.1314 70.5381 72.544 69.5503 73.101 67.9576C73.811 65.9263 73.4282 63.757 73.7106 62.5706C73.993 61.3842 73.1392 61.0717 72.5217 61.7793Z" fill="#FFBDA7"/>
</g>
<defs>
<clipPath id="clip0">
<rect width="140" height="163" fill="white"/>
</clipPath>
</defs>
</svg>
